<svg width="32" height="32" viewBox="0 0 32 32" fill="none" xmlns="http://www.w3.org/2000/svg">
<g clip-path="url(#clip0_13_353)">
<path d="M30.0348 9.76125C30.0305 9.79132 30.0201 9.8985 29.9809 10.0412C29.906 10.3139 29.8115 10.3839 29.8437 10.8245C29.8587 11.03 30.0736 14.0743 29.8437 15.973C29.7544 16.7103 29.6125 17.3602 29.6125 17.3602C29.6125 17.3602 29.4455 18.1255 29.185 18.8948C28.267 21.6057 25.8918 24.6528 25.8918 24.6528C25.4286 25.2472 24.9724 25.8325 24.4961 26.4029C23.2703 27.8715 21.9125 29.2414 19.964 30.411C17.6719 31.7867 16.3445 31.8155 15.9741 31.8134C15.6008 31.8112 14.3087 31.7667 12.0603 30.411C10.1078 29.2336 8.74191 27.8561 7.52794 26.4033C7.04795 25.829 6.59174 25.2429 6.13244 24.6528C6.13244 24.6528 3.76728 21.6145 2.83921 18.8948C2.57657 18.1252 2.40975 17.3613 2.40975 17.3613C2.21524 16.5827 2.18509 16.0054 2.18056 15.9797C2.12869 15.6862 2.09329 14.5719 2.18056 10.8244C2.18437 10.6617 2.17624 10.6703 2.13137 10.4823C2.08825 10.3021 2.01641 9.9124 1.98945 9.76125C1.90938 9.31254 1.67865 8.87844 1.58881 8.6929C1.26782 8.03002 1.07136 7.08614 0.82725 5.91287C0.36486 3.69018 0.329766 1.405 0.332133 0.528464C0.332442 0.418087 0.419816 0.327375 0.530036 0.32336C1.58521 0.284336 3.22832 0.361559 5.07768 1.03237C5.07768 1.03237 7.60873 1.95019 9.42577 3.77986C9.42669 3.78079 9.42927 3.78336 9.43277 3.78687C9.8615 4.21787 10.45 4.40558 11.0225 4.28799C12.4207 4.00072 14.1045 3.77986 16.0122 3.77986C17.9199 3.77986 19.6038 4.00072 21.002 4.28799C21.5745 4.40558 22.163 4.21787 22.5917 3.78687C22.5925 3.78604 22.5933 3.78522 22.594 3.7846C22.5966 3.78192 22.5987 3.77986 22.5987 3.77986C24.7426 1.6901 27.5025 0.836739 27.5025 0.836739C29.0016 0.373194 30.3524 0.283513 31.3702 0.311519C31.5255 0.315843 31.6536 0.434767 31.6691 0.589419C31.8171 2.06839 31.6818 3.22468 31.5263 4.01833C31.205 5.65886 30.0977 9.32345 30.0348 9.76125Z" stroke="black" stroke-width="0.4" stroke-miterlimit="10"/>
<path d="M19.6324 30.6089C18.4233 31.2635 17.3943 31.8205 15.9761 31.8082C14.6324 31.7967 13.6669 31.2804 12.4294 30.5995C10.5181 29.5479 9.32606 28.3374 8.31936 27.3087C7.0879 26.0503 6.31481 24.9287 4.76885 22.6856C3.6792 21.1046 3.12563 20.131 2.83407 19.1128C2.83407 19.1128 2.82265 19.0728 2.37477 17.4616C2.28668 17.0679 2.17152 16.4627 2.11368 15.715C2.04679 14.8509 2.08219 14.1305 2.14455 12.8629C2.18459 12.0493 2.2274 11.6002 2.14527 10.8775C2.08888 10.3809 2.026 10.0005 1.95396 9.80678C1.54477 8.70671 1.14424 7.41853 0.825822 5.95705C0.401613 4.01031 0.22985 2.2453 0.18004 0.766737C0.169955 0.464022 0.377428 0.211966 0.642842 0.18293C0.66857 0.18015 0.694916 0.179429 0.721571 0.180974C0.732788 0.181592 0.744006 0.182209 0.755326 0.18293C3.3189 0.334699 6.72749 1.08284 9.40221 3.78214C9.40458 3.78451 9.40695 3.78688 9.40921 3.78935C9.83867 4.22345 10.4281 4.41249 11.0016 4.29408C12.4021 4.00475 14.0889 3.78214 15.9996 3.78214C17.9103 3.78214 19.5971 4.00465 20.9976 4.29408C21.571 4.41249 22.1606 4.22345 22.59 3.78935C22.5923 3.78698 22.5947 3.78461 22.5969 3.78214C25.2718 1.08284 28.6805 0.334596 31.2439 0.18293C31.2552 0.182209 31.2664 0.181592 31.2777 0.180974C31.3043 0.179429 31.3307 0.18015 31.3565 0.18293C31.6219 0.212069 31.8294 0.464022 31.8192 0.766737C31.7695 2.2454 31.5978 4.01041 31.1736 5.95716C30.8552 7.41863 30.4546 8.70681 30.0456 9.80688C29.9192 10.1469 29.8542 10.5104 29.8542 10.8776C29.8692 11.0847 30.0845 14.151 29.8542 16.0633C29.7649 16.8061 29.6227 17.4605 29.6227 17.4605C29.5414 17.8345 29.4086 18.3738 29.1944 19.0063C28.9813 19.6355 28.4408 21.0864 26.5453 23.7567C25.5173 25.2049 24.7239 26.3227 23.3859 27.6487C22.3754 28.6502 21.3188 29.6962 19.6324 30.6091V30.6089Z" stroke="black" stroke-width="0.4" stroke-miterlimit="10"/>
<path d="M8.76767 21.3119L5.80273 24.1768C8.08649 27.6301 10.5736 29.479 12.066 30.4081C14.0774 31.6604 15.2375 31.837 16.09 31.8188C17.581 31.7869 18.6897 31.147 19.9698 30.4081C21.678 29.4223 22.7635 28.3094 23.7056 27.3295C24.826 26.1642 25.6566 25.0566 26.2473 24.1768C25.2508 23.2218 24.2543 22.2669 23.2579 21.3119C23.2089 21.4576 23.1302 21.6624 23.0057 21.893C22.9293 22.0348 22.5945 22.6328 21.8017 23.2521C21.1536 23.7583 21.0298 23.6302 20.6799 24.0347C20.4084 24.3485 20.4123 24.5073 20.0624 25.0643C20.0624 25.0643 19.7231 25.6046 19.3214 26.0528C18.2962 27.1968 16.3215 27.2138 16.0385 27.2163C15.6655 27.2195 14.2324 27.2143 13.0952 26.3617C12.8428 26.1724 12.4814 25.9015 12.1793 25.4247C11.9314 25.0336 11.9388 24.844 11.675 24.4671C11.5249 24.2529 11.4065 24.1483 10.7796 23.6331C9.68576 22.7339 9.52213 22.6211 9.29767 22.3255C9.02073 21.9608 8.86256 21.5965 8.76767 21.3119Z" fill="black" stroke="black" stroke-width="0.4" stroke-miterlimit="10"/>
<path d="M11.0784 15.674C10.7366 15.8609 9.51058 16.5848 8.8966 18.1451C8.31339 19.6272 8.65156 20.9252 8.76796 21.3119C8.90133 21.683 9.06672 21.9628 9.19505 22.1504C9.41837 22.477 9.64211 22.6897 9.80224 22.8403C10.0186 23.0436 10.1177 23.1014 10.502 23.4066C10.6954 23.5601 10.9414 23.7606 11.2224 24.0037C11.3538 23.9187 12.3634 23.2724 13.1778 23.1388C13.4707 23.0909 13.7335 23.0977 13.7335 23.0977C14.1113 23.1074 14.2806 23.1895 14.526 23.2315C15.208 23.3483 15.3191 22.9578 16.0594 23.0153C16.5233 23.0513 16.5333 23.2089 17.0576 23.2315C17.4416 23.2481 17.543 23.1682 17.9941 23.1183C18.3422 23.0797 18.9491 23.0124 19.5481 23.2212C19.7918 23.3062 20.245 23.5101 20.6802 24.0346C20.7886 23.9458 20.9618 23.8085 21.1845 23.6537C21.6909 23.3013 21.8642 23.2673 22.1621 23.005C22.4061 22.7901 22.5439 22.5893 22.7179 22.3357C22.9684 21.9705 23.1396 21.6168 23.2582 21.3119C23.3647 20.9799 23.8274 19.4171 23.006 17.7744C22.3826 16.5275 21.3691 15.9341 20.9889 15.7357C20.3269 15.7185 19.6647 15.7014 19.0027 15.6842C18.8476 15.9713 18.6946 16.2836 18.5499 16.6212C18.194 17.4514 17.9314 18.2308 17.7956 18.907C16.5949 18.9036 15.4234 18.9104 14.2227 18.907C14.0897 18.2564 13.8728 17.4582 13.4557 16.6212C13.2869 16.2826 13.1085 15.9774 12.9308 15.7048L11.0784 15.674Z" stroke="black" stroke-width="0.4" stroke-miterlimit="10"/>
<path d="M17.9886 18.9864C17.9364 18.5747 16.6762 18.4694 16.0127 18.4694C15.3492 18.4694 14.0891 18.5747 14.0368 18.9864C13.9884 19.3676 15.0385 19.5127 15.3541 20.5376C15.5202 21.0771 15.3931 21.5693 15.3541 21.7129C15.0727 22.7504 14.1359 23.0892 14.0368 23.1229C14.1907 23.1711 14.4257 23.2298 14.7138 23.2407C15.3705 23.2654 15.485 23.0107 16.0539 23.0176C16.6109 23.0244 16.7081 23.2711 17.33 23.245C17.6137 23.2331 17.8432 23.1713 17.9886 23.123C17.8895 23.0893 16.9527 22.7505 16.6714 21.713C16.6324 21.5694 16.5053 21.0772 16.6714 20.5377C16.9869 19.5127 18.037 19.3677 17.9886 18.9865V18.9864Z" fill="black"/>
<path d="M0.93061 0.491038C0.591305 0.337003 0.207232 0.584735 0.205379 0.958289C0.203321 1.36736 0.21176 1.78694 0.232137 2.21651C0.381773 5.36361 1.13211 8.06889 1.99144 10.2243C2.10218 10.502 2.4243 10.6272 2.69249 10.4966C2.97632 10.3583 3.2653 10.2039 3.55717 10.0316C5.67163 8.78284 7.04593 7.11348 7.90608 5.7732C8.02731 5.58426 8.01157 5.33828 7.86821 5.16561C7.78248 5.06233 7.68626 4.95021 7.57995 4.8319C7.57995 4.8319 7.16449 4.3698 6.67688 3.93611C5.67245 3.0428 4.1729 2.16513 4.1729 2.16513C3.3677 1.69376 2.28433 1.10573 0.93061 0.491038Z" fill="black" stroke="black" stroke-width="0.4" stroke-miterlimit="10"/>
<path d="M31.0928 0.539377C31.4331 0.385343 31.8183 0.633075 31.8202 1.00663C31.8222 1.4157 31.8138 1.83528 31.7933 2.26485C31.6433 5.41195 30.8907 8.11723 30.0287 10.2727C29.9176 10.5504 29.5946 10.6756 29.3256 10.5449C29.0409 10.4066 28.751 10.2523 28.4583 10.0799C26.3375 8.83118 24.959 7.16182 24.0962 5.82154C23.9746 5.6326 23.9904 5.38662 24.1342 5.21395C24.2202 5.11067 24.3167 4.99855 24.4234 4.88024C24.4234 4.88024 24.8401 4.41814 25.3292 3.98445C26.3367 3.09114 27.8408 2.21347 27.8408 2.21347C28.6485 1.7422 29.7351 1.15418 31.0929 0.53948L31.0928 0.539377Z" fill="black" stroke="black" stroke-width="0.4" stroke-miterlimit="10"/>
<path d="M11.412 11.7973C10.8439 11.3782 10.2079 11.1178 10.2079 11.1178C9.18344 10.6983 8.30497 10.6996 7.76889 10.7059C6.53249 10.7203 5.59938 11.0552 5.29897 11.2105C5.24834 11.2366 4.85645 11.4434 4.85645 11.4448C4.85665 11.4448 4.85819 11.444 4.8584 11.444C5.12773 11.3473 5.53022 11.2457 5.75663 11.444C6.1053 11.7494 5.66627 12.4421 5.75663 13.2747C5.89258 14.528 7.18723 15.7215 8.45131 16.0208C9.58768 16.29 9.97577 15.7911 11.1461 16.0208C12.3823 16.2635 13.2681 17.1232 13.8408 17.8516C13.6172 14.9501 12.6115 12.6823 11.412 11.7973ZM11.3863 14.912C10.9294 15.3132 10.4106 15.365 9.99697 15.4062C9.65365 15.4405 8.78084 15.5276 7.94899 14.9635C7.72413 14.811 6.86881 14.231 6.78607 13.1616C6.70992 12.1769 7.34438 11.4954 7.45501 11.3803C7.63706 11.326 7.88745 11.2724 8.18724 11.2701C8.40089 11.2684 8.58675 11.293 8.73628 11.3237C8.59827 11.5169 8.36919 11.8924 8.29375 12.4151C8.25681 12.6712 8.20216 13.0495 8.38637 13.4551C8.42414 13.5383 8.78094 14.2932 9.46697 14.2994C9.96846 14.3039 10.2932 13.9052 10.3314 13.8566C10.5534 13.5751 10.5688 13.2725 10.5887 12.8785C10.6015 12.6263 10.5906 12.2432 10.4549 11.7871C10.709 11.9354 11.0283 12.1541 11.3519 12.4688C11.6798 12.7876 11.9094 13.1049 12.0655 13.3573C12.0608 13.5436 12.0197 14.3558 11.3863 14.912Z" fill="black" stroke="black" stroke-width="0.4" stroke-miterlimit="10"/>
<path d="M26.7364 11.2649C26.4369 11.1081 25.5055 10.7683 24.2692 10.7475C23.7331 10.7384 22.8548 10.7324 21.828 11.1467C21.828 11.1467 21.1908 11.4038 20.6204 11.8199C19.4164 12.6986 18.3989 14.9611 18.1602 17.8615C18.7367 17.136 19.6269 16.281 20.8644 16.0448C22.0359 15.8211 22.4213 16.3221 23.5591 16.0588C24.8247 15.766 26.1256 14.5793 26.2681 13.3267C26.3627 12.4947 25.9273 11.7996 26.2776 11.496C26.505 11.2988 26.907 11.4026 27.1758 11.5007C27.176 11.5008 27.1775 11.5015 27.1777 11.5015C27.1777 11.5001 26.787 11.2913 26.7364 11.2649ZM25.2423 13.1627C25.1596 14.2321 24.3043 14.8121 24.0794 14.9646C23.2476 15.5287 22.3748 15.4416 22.0315 15.4073C21.6178 15.366 21.0991 15.3142 20.6421 14.9131C20.0087 14.3569 19.9676 13.5447 19.9629 13.3583C20.119 13.106 20.3486 12.7886 20.6765 12.4699C21.0002 12.1552 21.3194 11.9365 21.5735 11.7881C21.4378 12.2443 21.4269 12.6274 21.4397 12.8796C21.4597 13.2736 21.475 13.5762 21.697 13.8577C21.7353 13.9063 22.06 14.305 22.5615 14.3005C23.2475 14.2943 23.6043 13.5393 23.642 13.4562C23.8263 13.0506 23.7716 12.6724 23.7347 12.4162C23.6592 11.8935 23.4301 11.518 23.2921 11.3248C23.4417 11.2941 23.6275 11.2695 23.8412 11.2711C24.141 11.2736 24.3914 11.3271 24.5734 11.3814C24.684 11.4964 25.3185 12.178 25.2423 13.1627Z" fill="black" stroke="black" stroke-width="0.4" stroke-miterlimit="10"/>
<path d="M9 11.0001C8.22531 10.8401 6.58265 11.0815 2 12.0001M24 11.0001C25.1234 11.0349 30 12.0001 30 12.0001" stroke="black" stroke-width="0.5"/>
</g>
<defs>
<clipPath id="clip0_13_353">
<rect width="32" height="32" fill="white"/>
</clipPath>
</defs>
</svg>