<svg width="32" height="28" viewBox="0 0 32 28" fill="none" xmlns="http://www.w3.org/2000/svg">
<path fill-rule="evenodd" clip-rule="evenodd" d="M30.5566 16.5C31.4498 14.953 31.4498 13.047 30.5566 11.5L25.4434 2.64359C24.5502 1.09659 22.8996 0.143594 21.1132 0.143594H10.8867C9.10041 0.143594 7.44978 1.09659 6.55662 2.64359L1.44337 11.5C0.550209 13.047 0.550209 14.953 1.44337 16.5L6.55662 25.3564C7.44978 26.9034 9.10041 27.8564 10.8867 27.8564H21.1132C22.8996 27.8564 24.5502 26.9034 25.4434 25.3564L30.5566 16.5ZM23.9194 5.2663C23.6463 5.20389 23.3596 5.24968 23.1196 5.39408C20.4264 7.01367 17.2512 9.13267 11.6514 14.6544L8.06666 11.9667C7.86575 11.8158 7.61864 11.7395 7.36767 11.7508C7.11669 11.762 6.87742 11.8602 6.69083 12.0284L4.5675 13.9437C4.45965 14.041 4.37244 14.1589 4.31109 14.2905C4.24972 14.4221 4.21545 14.5648 4.21029 14.7099C4.20513 14.855 4.22921 14.9997 4.28107 15.1353C4.33295 15.2709 4.41157 15.3948 4.51225 15.4994L11.5377 22.7989C12.3068 23.5995 13.6036 23.4002 14.1344 22.4728C16.0368 19.1492 18.8632 15.7237 21.2432 13.1063C22.5084 11.7171 23.8162 10.3673 25.1649 9.059L25.4087 8.82608L25.4704 8.76867L25.4856 8.75458L25.4888 8.75025C25.6756 8.57613 25.7949 8.34162 25.8257 8.0881C25.8564 7.83459 25.7966 7.57837 25.6567 7.36467L24.5843 5.72883C24.4308 5.49449 24.1925 5.32872 23.9194 5.2663Z" fill="black"/>
</svg>
